<mxfile host="app.diagrams.net" modified="2022-09-23T08:22:03.525Z" agent="5.0 (Macintosh; Intel Mac OS X 10_15_7) AppleWebKit/605.1.15 (KHTML, like Gecko) Version/15.1 Safari/605.1.15" etag="isNOH4GKz_gK7bNAbaYL" version="20.3.1" type="github">
  <diagram id="0-eIzqEijCaNKOFwE0yg" name="Page-1">
    <mxGraphModel dx="949" dy="658" grid="1" gridSize="10" guides="1" tooltips="1" connect="1" arrows="1" fold="1" page="1" pageScale="1" pageWidth="1169" pageHeight="827" math="0" shadow="0">
      <root>
        <mxCell id="0" />
        <mxCell id="1" parent="0" />
        <mxCell id="OjMGByleGfyb7vKYq2kZ-40" style="edgeStyle=orthogonalEdgeStyle;rounded=0;orthogonalLoop=1;jettySize=auto;html=1;exitX=1;exitY=0;exitDx=0;exitDy=52.5;exitPerimeter=0;entryX=0;entryY=0.25;entryDx=0;entryDy=0;fontSize=9;fontColor=#000000;" parent="1" source="OjMGByleGfyb7vKYq2kZ-1" target="OjMGByleGfyb7vKYq2kZ-3" edge="1">
          <mxGeometry relative="1" as="geometry" />
        </mxCell>
        <mxCell id="OjMGByleGfyb7vKYq2kZ-41" value="DynamoDB Client Query" style="edgeLabel;html=1;align=center;verticalAlign=middle;resizable=0;points=[];fontSize=9;fontColor=#000000;" parent="OjMGByleGfyb7vKYq2kZ-40" vertex="1" connectable="0">
          <mxGeometry x="-0.5415" y="2" relative="1" as="geometry">
            <mxPoint x="-38" y="50" as="offset" />
          </mxGeometry>
        </mxCell>
        <mxCell id="OjMGByleGfyb7vKYq2kZ-1" value="DDB" style="shape=cylinder3;whiteSpace=wrap;html=1;boundedLbl=1;backgroundOutline=1;size=15;" parent="1" vertex="1">
          <mxGeometry x="310" y="220" width="60" height="80" as="geometry" />
        </mxCell>
        <mxCell id="OjMGByleGfyb7vKYq2kZ-32" style="edgeStyle=orthogonalEdgeStyle;rounded=0;orthogonalLoop=1;jettySize=auto;html=1;exitX=1;exitY=0;exitDx=0;exitDy=27.5;exitPerimeter=0;entryX=0;entryY=0.25;entryDx=0;entryDy=0;fontSize=9;fontColor=#000000;" parent="1" source="OjMGByleGfyb7vKYq2kZ-2" target="OjMGByleGfyb7vKYq2kZ-48" edge="1">
          <mxGeometry relative="1" as="geometry" />
        </mxCell>
        <mxCell id="OjMGByleGfyb7vKYq2kZ-2" value="S3" style="shape=cylinder3;whiteSpace=wrap;html=1;boundedLbl=1;backgroundOutline=1;size=15;" parent="1" vertex="1">
          <mxGeometry x="200" y="510" width="60" height="80" as="geometry" />
        </mxCell>
        <mxCell id="OjMGByleGfyb7vKYq2kZ-7" style="edgeStyle=orthogonalEdgeStyle;rounded=0;orthogonalLoop=1;jettySize=auto;html=1;exitX=1;exitY=0.25;exitDx=0;exitDy=0;entryX=0;entryY=0.25;entryDx=0;entryDy=0;" parent="1" source="OjMGByleGfyb7vKYq2kZ-3" target="OjMGByleGfyb7vKYq2kZ-5" edge="1">
          <mxGeometry relative="1" as="geometry" />
        </mxCell>
        <mxCell id="OjMGByleGfyb7vKYq2kZ-11" value="&lt;p&gt;&lt;font style=&quot;font-size: 9px;&quot;&gt;GET /countryData/{countryCode}/options&lt;/font&gt;&lt;/p&gt;" style="edgeLabel;html=1;align=center;verticalAlign=middle;resizable=0;points=[];labelBackgroundColor=none;" parent="OjMGByleGfyb7vKYq2kZ-7" vertex="1" connectable="0">
          <mxGeometry x="-0.1538" y="2" relative="1" as="geometry">
            <mxPoint x="14" y="-6" as="offset" />
          </mxGeometry>
        </mxCell>
        <mxCell id="OjMGByleGfyb7vKYq2kZ-28" style="edgeStyle=orthogonalEdgeStyle;rounded=0;orthogonalLoop=1;jettySize=auto;html=1;exitX=0.95;exitY=0;exitDx=0;exitDy=0;fontSize=9;fontColor=#000000;entryX=0.75;entryY=0;entryDx=0;entryDy=0;exitPerimeter=0;" parent="1" source="OjMGByleGfyb7vKYq2kZ-3" target="OjMGByleGfyb7vKYq2kZ-4" edge="1">
          <mxGeometry relative="1" as="geometry">
            <mxPoint x="640" y="340" as="sourcePoint" />
            <mxPoint x="640" y="140" as="targetPoint" />
            <Array as="points">
              <mxPoint x="640" y="340" />
              <mxPoint x="640" y="280" />
              <mxPoint x="800" y="280" />
              <mxPoint x="800" y="60" />
              <mxPoint x="589" y="60" />
            </Array>
          </mxGeometry>
        </mxCell>
        <mxCell id="OjMGByleGfyb7vKYq2kZ-29" value="GET /countryData/{countryCode}" style="edgeLabel;html=1;align=center;verticalAlign=middle;resizable=0;points=[];fontSize=9;fontColor=#000000;" parent="OjMGByleGfyb7vKYq2kZ-28" vertex="1" connectable="0">
          <mxGeometry x="0.4667" relative="1" as="geometry">
            <mxPoint x="-56" y="-10" as="offset" />
          </mxGeometry>
        </mxCell>
        <mxCell id="OjMGByleGfyb7vKYq2kZ-31" style="edgeStyle=orthogonalEdgeStyle;rounded=0;orthogonalLoop=1;jettySize=auto;html=1;entryX=1;entryY=1;entryDx=0;entryDy=-15;entryPerimeter=0;fontSize=9;fontColor=#000000;exitX=0;exitY=0.75;exitDx=0;exitDy=0;" parent="1" source="OjMGByleGfyb7vKYq2kZ-48" target="OjMGByleGfyb7vKYq2kZ-2" edge="1">
          <mxGeometry relative="1" as="geometry">
            <mxPoint x="510" y="490" as="sourcePoint" />
          </mxGeometry>
        </mxCell>
        <mxCell id="OjMGByleGfyb7vKYq2kZ-33" value="GET /countryData/{countryCode}/file/{fileKey}" style="edgeLabel;html=1;align=center;verticalAlign=middle;resizable=0;points=[];fontSize=9;fontColor=#000000;" parent="OjMGByleGfyb7vKYq2kZ-31" vertex="1" connectable="0">
          <mxGeometry x="-0.1869" y="1" relative="1" as="geometry">
            <mxPoint x="-59" y="-26" as="offset" />
          </mxGeometry>
        </mxCell>
        <mxCell id="OjMGByleGfyb7vKYq2kZ-38" style="edgeStyle=orthogonalEdgeStyle;rounded=0;orthogonalLoop=1;jettySize=auto;html=1;exitX=0.25;exitY=0;exitDx=0;exitDy=0;entryX=1;entryY=0;entryDx=0;entryDy=27.5;entryPerimeter=0;fontSize=9;fontColor=#000000;" parent="1" source="OjMGByleGfyb7vKYq2kZ-3" target="OjMGByleGfyb7vKYq2kZ-1" edge="1">
          <mxGeometry relative="1" as="geometry" />
        </mxCell>
        <mxCell id="OjMGByleGfyb7vKYq2kZ-39" value="DynamoDB Client PutObject" style="edgeLabel;html=1;align=center;verticalAlign=middle;resizable=0;points=[];fontSize=9;fontColor=#000000;" parent="OjMGByleGfyb7vKYq2kZ-38" vertex="1" connectable="0">
          <mxGeometry x="0.2562" y="3" relative="1" as="geometry">
            <mxPoint x="-23" y="-10" as="offset" />
          </mxGeometry>
        </mxCell>
        <mxCell id="OjMGByleGfyb7vKYq2kZ-51" style="edgeStyle=orthogonalEdgeStyle;rounded=0;orthogonalLoop=1;jettySize=auto;html=1;exitX=0.75;exitY=1;exitDx=0;exitDy=0;entryX=0.75;entryY=0;entryDx=0;entryDy=0;fontSize=9;fontColor=#000000;" parent="1" source="OjMGByleGfyb7vKYq2kZ-3" target="OjMGByleGfyb7vKYq2kZ-48" edge="1">
          <mxGeometry relative="1" as="geometry">
            <mxPoint x="600" y="400" as="sourcePoint" />
            <mxPoint x="600" y="530" as="targetPoint" />
          </mxGeometry>
        </mxCell>
        <mxCell id="OjMGByleGfyb7vKYq2kZ-52" value="POST /fileScans" style="edgeLabel;html=1;align=center;verticalAlign=middle;resizable=0;points=[];fontSize=9;fontColor=#000000;" parent="OjMGByleGfyb7vKYq2kZ-51" vertex="1" connectable="0">
          <mxGeometry x="-0.4" y="2" relative="1" as="geometry">
            <mxPoint x="38" y="31" as="offset" />
          </mxGeometry>
        </mxCell>
        <mxCell id="OjMGByleGfyb7vKYq2kZ-3" value="GSA&lt;br&gt;minerve-quote-api" style="rounded=1;whiteSpace=wrap;html=1;" parent="1" vertex="1">
          <mxGeometry x="520" y="340" width="120" height="60" as="geometry" />
        </mxCell>
        <mxCell id="OjMGByleGfyb7vKYq2kZ-27" style="edgeStyle=orthogonalEdgeStyle;rounded=0;orthogonalLoop=1;jettySize=auto;html=1;exitX=1;exitY=0.75;exitDx=0;exitDy=0;fontSize=9;fontColor=#000000;entryX=1;entryY=0;entryDx=0;entryDy=0;" parent="1" source="OjMGByleGfyb7vKYq2kZ-4" target="OjMGByleGfyb7vKYq2kZ-3" edge="1">
          <mxGeometry relative="1" as="geometry">
            <mxPoint x="590" y="240" as="targetPoint" />
            <Array as="points">
              <mxPoint x="619" y="130" />
              <mxPoint x="700" y="130" />
              <mxPoint x="700" y="270" />
              <mxPoint x="619" y="270" />
            </Array>
          </mxGeometry>
        </mxCell>
        <mxCell id="OjMGByleGfyb7vKYq2kZ-42" style="edgeStyle=orthogonalEdgeStyle;rounded=0;orthogonalLoop=1;jettySize=auto;html=1;exitX=0.5;exitY=1;exitDx=0;exitDy=0;entryX=0.5;entryY=0;entryDx=0;entryDy=0;fontSize=9;fontColor=#000000;" parent="1" source="OjMGByleGfyb7vKYq2kZ-4" target="OjMGByleGfyb7vKYq2kZ-3" edge="1">
          <mxGeometry relative="1" as="geometry" />
        </mxCell>
        <mxCell id="OjMGByleGfyb7vKYq2kZ-44" style="edgeStyle=orthogonalEdgeStyle;rounded=0;orthogonalLoop=1;jettySize=auto;html=1;exitX=0.75;exitY=1;exitDx=0;exitDy=0;entryX=0.75;entryY=0;entryDx=0;entryDy=0;fontSize=9;fontColor=#000000;" parent="1" source="OjMGByleGfyb7vKYq2kZ-4" target="OjMGByleGfyb7vKYq2kZ-3" edge="1">
          <mxGeometry relative="1" as="geometry" />
        </mxCell>
        <mxCell id="OjMGByleGfyb7vKYq2kZ-4" value="BackEnd" style="rounded=1;whiteSpace=wrap;html=1;" parent="1" vertex="1">
          <mxGeometry x="499" y="90" width="120" height="60" as="geometry" />
        </mxCell>
        <mxCell id="OjMGByleGfyb7vKYq2kZ-5" value="FrontEnd AEM" style="rounded=1;whiteSpace=wrap;html=1;" parent="1" vertex="1">
          <mxGeometry x="910" y="340" width="120" height="60" as="geometry" />
        </mxCell>
        <mxCell id="OjMGByleGfyb7vKYq2kZ-20" value="" style="endArrow=classic;html=1;rounded=0;fontSize=9;fontColor=#000000;entryX=1;entryY=0.75;entryDx=0;entryDy=0;exitX=0;exitY=0.75;exitDx=0;exitDy=0;startArrow=none;" parent="1" source="OjMGByleGfyb7vKYq2kZ-5" target="OjMGByleGfyb7vKYq2kZ-3" edge="1">
          <mxGeometry width="50" height="50" relative="1" as="geometry">
            <mxPoint x="679" y="355" as="sourcePoint" />
            <mxPoint x="699" y="260" as="targetPoint" />
          </mxGeometry>
        </mxCell>
        <mxCell id="OjMGByleGfyb7vKYq2kZ-30" value="POST /countryData/{countryCode}" style="edgeLabel;html=1;align=center;verticalAlign=middle;resizable=0;points=[];fontSize=9;fontColor=#000000;" parent="1" vertex="1" connectable="0">
          <mxGeometry x="690" y="120" as="geometry" />
        </mxCell>
        <mxCell id="OjMGByleGfyb7vKYq2kZ-34" value="JADE Fetching from S" style="edgeLabel;html=1;align=center;verticalAlign=middle;resizable=0;points=[];fontSize=9;fontColor=#000000;" parent="1" vertex="1" connectable="0">
          <mxGeometry x="380" y="590" as="geometry" />
        </mxCell>
        <mxCell id="OjMGByleGfyb7vKYq2kZ-35" value="POST /premiumEstimations" style="text;html=1;strokeColor=none;fillColor=none;align=center;verticalAlign=middle;whiteSpace=wrap;rounded=0;labelBackgroundColor=none;fontSize=9;fontColor=#000000;" parent="1" vertex="1">
          <mxGeometry x="750" y="377" width="140" height="30" as="geometry" />
        </mxCell>
        <mxCell id="OjMGByleGfyb7vKYq2kZ-46" value="POST /countryData/ {countryCode} /validate" style="text;html=1;strokeColor=none;fillColor=none;align=center;verticalAlign=middle;whiteSpace=wrap;rounded=0;labelBackgroundColor=none;fontSize=9;fontColor=#000000;" parent="1" vertex="1">
          <mxGeometry x="600" y="170" width="40" height="30" as="geometry" />
        </mxCell>
        <mxCell id="OjMGByleGfyb7vKYq2kZ-47" value="POST /countryData/ {countryCode} /restore" style="text;html=1;strokeColor=none;fillColor=none;align=center;verticalAlign=middle;whiteSpace=wrap;rounded=0;labelBackgroundColor=none;fontSize=9;fontColor=#000000;" parent="1" vertex="1">
          <mxGeometry x="499" y="170" width="40" height="30" as="geometry" />
        </mxCell>
        <mxCell id="OjMGByleGfyb7vKYq2kZ-53" style="edgeStyle=orthogonalEdgeStyle;rounded=0;orthogonalLoop=1;jettySize=auto;html=1;exitX=0.5;exitY=0;exitDx=0;exitDy=0;entryX=0.5;entryY=1;entryDx=0;entryDy=0;fontSize=9;fontColor=#000000;" parent="1" source="OjMGByleGfyb7vKYq2kZ-48" target="OjMGByleGfyb7vKYq2kZ-3" edge="1">
          <mxGeometry relative="1" as="geometry" />
        </mxCell>
        <mxCell id="OjMGByleGfyb7vKYq2kZ-48" value="JADE Security" style="rounded=1;whiteSpace=wrap;html=1;labelBackgroundColor=none;fontSize=9;fontColor=#000000;" parent="1" vertex="1">
          <mxGeometry x="499" y="530" width="120" height="60" as="geometry" />
        </mxCell>
        <mxCell id="OjMGByleGfyb7vKYq2kZ-54" value="GET /fileScans/{documentUrl}" style="edgeLabel;html=1;align=center;verticalAlign=middle;resizable=0;points=[];fontSize=9;fontColor=#000000;" parent="1" vertex="1" connectable="0">
          <mxGeometry x="490" y="500" as="geometry" />
        </mxCell>
      </root>
    </mxGraphModel>
  </diagram>
</mxfile>
